<svg width="157" height="157" viewBox="0 0 157 157" fill="none" xmlns="http://www.w3.org/2000/svg">
<g filter="url(#filter0_d_1001_23535)">
<rect x="24" y="24" width="108.69" height="108.69" rx="30.4332" fill="white"/>
<path d="M54.4526 45H101.745C106.399 45 110.198 48.796 110.198 53.4877V100.977C110.198 105.652 106.417 109.463 101.745 109.463H54.4526C49.7986 109.463 46 105.67 46 100.978V53.4656C46 48.796 49.7765 45 54.4526 45Z" fill="#5468FF"/>
<path d="M84.7881 59.3909V57.1809C84.7881 55.6352 83.5401 54.3833 82.0009 54.3846H75.5035C74.7634 54.386 74.0541 54.6812 73.5315 55.2053C73.0088 55.7294 72.7156 56.4395 72.7163 57.1796V59.4494C72.7163 59.7029 72.9503 59.8784 73.2038 59.8199C75.0416 59.2874 76.9455 59.0182 78.8588 59.0204C80.7126 59.0204 82.5469 59.2726 84.3201 59.7614C84.3761 59.7754 84.4345 59.7763 84.4908 59.7641C84.5472 59.7519 84.6 59.727 84.6452 59.6912C84.6904 59.6554 84.7268 59.6097 84.7515 59.5577C84.7763 59.5056 84.7888 59.4486 84.7881 59.3909V59.3909ZM66.982 62.2834L65.8718 61.1693C65.6136 60.91 65.3067 60.7042 64.9687 60.5638C64.6307 60.4234 64.2683 60.3511 63.9023 60.3511C63.5363 60.3511 63.174 60.4234 62.836 60.5638C62.498 60.7042 62.1911 60.91 61.9328 61.1693L60.6055 62.4979C60.3456 62.7572 60.1394 63.0652 59.9988 63.4043C59.8581 63.7433 59.7856 64.1068 59.7856 64.4739C59.7856 64.841 59.8581 65.2045 59.9988 65.5436C60.1394 65.8827 60.3456 66.1907 60.6055 66.4499L61.6975 67.5458C61.873 67.72 62.1265 67.6797 62.2825 67.5055C62.9258 66.6177 63.6364 65.7807 64.408 65.0017C65.1863 64.2178 66.0276 63.4991 66.9235 62.8528C67.1185 62.7358 67.1367 62.4602 66.982 62.2834V62.2834ZM78.838 69.3021V78.8636C78.838 79.1366 79.1331 79.3342 79.384 79.1964L87.8509 74.7972C88.0433 74.701 88.1018 74.4644 88.0069 74.2707C87.1219 72.705 85.8504 71.3922 84.3138 70.4576C82.7771 69.5229 81.0267 68.9976 79.2293 68.9316C79.0343 68.9316 78.8393 69.0876 78.8393 69.3021H78.838ZM78.8393 92.3368C71.7803 92.3368 66.0447 86.5856 66.0447 79.5084C66.0447 72.4312 71.7803 66.6826 78.8393 66.6826C85.9009 66.6826 91.6339 72.4312 91.6339 79.5084C91.6339 86.5856 85.9204 92.3368 78.8393 92.3368ZM78.8393 61.2876C68.8137 61.2876 60.6822 69.4412 60.6822 79.5084C60.6822 89.5782 68.8137 97.7136 78.8393 97.7136C88.8649 97.7136 96.9964 89.5587 96.9964 79.4902C96.9964 69.4204 88.8844 61.2876 78.8393 61.2876" fill="white"/>
</g>
<defs>
<filter id="filter0_d_1001_23535" x="0" y="0" width="156.69" height="156.69" filterUnits="userSpaceOnUse" color-interpolation-filters="sRGB">
<feFlood flood-opacity="0" result="BackgroundImageFix"/>
<feColorMatrix in="SourceAlpha" type="matrix" values="0 0 0 0 0 0 0 0 0 0 0 0 0 0 0 0 0 0 127 0" result="hardAlpha"/>
<feOffset/>
<feGaussianBlur stdDeviation="12"/>
<feComposite in2="hardAlpha" operator="out"/>
<feColorMatrix type="matrix" values="0 0 0 0 0 0 0 0 0 0 0 0 0 0 0 0 0 0 0.2 0"/>
<feBlend mode="normal" in2="BackgroundImageFix" result="effect1_dropShadow_1001_23535"/>
<feBlend mode="normal" in="SourceGraphic" in2="effect1_dropShadow_1001_23535" result="shape"/>
</filter>
</defs>
</svg>
