<svg width="158" height="157" viewBox="0 0 158 157" fill="none" xmlns="http://www.w3.org/2000/svg">
<g filter="url(#filter0_d)">
<rect x="24.8558" y="24" width="108.69" height="108.69" rx="30.4332" fill="white"/>
<path d="M65.6277 103.249C69.3863 103.249 72.4333 100.202 72.4333 96.4438C72.4333 92.6852 69.3863 89.6382 65.6277 89.6382C61.8691 89.6382 58.8221 92.6852 58.8221 96.4438C58.8221 100.202 61.8691 103.249 65.6277 103.249Z" fill="#D5465F"/>
<path d="M65.6277 69.0185C69.3863 69.0185 72.4333 65.9715 72.4333 62.2129C72.4333 58.4543 69.3863 55.4073 65.6277 55.4073C61.8691 55.4073 58.8221 58.4543 58.8221 62.2129C58.8221 65.9715 61.8691 69.0185 65.6277 69.0185Z" fill="#308BC5"/>
<path d="M94.9828 91.5684C91.8848 94.8696 87.5678 96.7995 82.743 96.7995C77.9181 96.7995 73.6012 94.8696 70.5031 91.7207C67.7606 88.9782 63.4944 88.9782 60.7519 91.7207C58.0093 94.4633 58.0093 98.7294 60.7519 101.472C66.3893 106.906 74.1598 110.411 82.743 110.411C91.3261 110.411 99.0966 106.906 104.734 101.269C107.477 98.5263 107.477 94.2601 104.734 91.5176C101.992 89.0798 97.7254 89.0798 94.9828 91.5684Z" fill="#ED5C68"/>
<path d="M70.5031 67.0885C73.6012 63.7873 77.9181 61.8574 82.743 61.8574C87.5678 61.8574 91.8848 63.7873 94.9828 66.9361C97.7254 69.6787 101.992 69.6787 104.734 66.9361C107.477 64.1936 107.477 59.9274 104.734 57.1849C99.0966 51.7506 91.3261 48.2462 82.743 48.2462C74.1598 48.2462 66.3893 51.7506 60.7519 57.388C58.0093 60.1306 58.0093 64.3967 60.7519 67.1393C63.4944 69.5771 67.7606 69.5771 70.5031 67.0885Z" fill="#3BB4E7"/>
<path d="M70.5033 91.5681C67.2021 88.47 65.2214 84.2039 65.2214 79.3282C65.2214 74.4526 67.1513 70.1864 70.3001 67.0884C73.0427 64.3458 73.0427 60.0797 70.3001 57.3371C67.5576 54.5946 63.2914 54.5946 60.5489 57.3371C55.1146 62.9746 51.6102 70.7451 51.6102 79.3282C51.6102 87.9114 55.1146 95.6819 60.752 101.319C63.4946 104.062 67.7608 104.062 70.5033 101.319C72.9919 98.5768 72.9919 94.3106 70.5033 91.5681Z" fill="#FFD85F"/>
</g>
<defs>
<filter id="filter0_d" x="0.855835" y="0" width="156.69" height="156.69" filterUnits="userSpaceOnUse" color-interpolation-filters="sRGB">
<feFlood flood-opacity="0" result="BackgroundImageFix"/>
<feColorMatrix in="SourceAlpha" type="matrix" values="0 0 0 0 0 0 0 0 0 0 0 0 0 0 0 0 0 0 127 0" result="hardAlpha"/>
<feOffset/>
<feGaussianBlur stdDeviation="12"/>
<feComposite in2="hardAlpha" operator="out"/>
<feColorMatrix type="matrix" values="0 0 0 0 0 0 0 0 0 0 0 0 0 0 0 0 0 0 0.2 0"/>
<feBlend mode="normal" in2="BackgroundImageFix" result="effect1_dropShadow"/>
<feBlend mode="normal" in="SourceGraphic" in2="effect1_dropShadow" result="shape"/>
</filter>
</defs>
</svg>
