<svg xmlns="http://www.w3.org/2000/svg" xmlns:xlink="http://www.w3.org/1999/xlink" width="219.32" height="46" viewBox="0 0 219.32 46" fill="none"><defs><rect id="path_0" x="0" y="0" width="219.32" height="46" /></defs><g opacity="1" transform="translate(0 0)  rotate(0 109.66 23)"><mask id="bg-mask-0" fill="white"><use xlink:href="#path_0"></use></mask><g mask="url(#bg-mask-0)" ><g opacity="1" transform="translate(0 0)  rotate(0 109.66 23)"><g opacity="1" transform="translate(57.32 9)  rotate(0 81 18.5)"><g opacity="1" transform="translate(0 0)  rotate(0 81 18.5)"><text><tspan x="0" y="28" font-size="27" line-height="0" fill="#FFFFFF" opacity="1" font-family="AlibabaPuHuiTi-Heavy" letter-spacing="0" >adminfirstly</tspan></text></g></g><path id="三角形 1" fill-rule="evenodd" style="fill:#7948EA" transform="translate(10 0)  rotate(0 17.32 13.875)" opacity="1" d="M34.64,27.75L17.32,0L0,27.75L34.64,27.75Z " /><path id="三角形 1" fill-rule="evenodd" style="fill:#FF8D1A" transform="translate(0 8)  rotate(0 17.32 13.875)" opacity="1" d="M34.64,27.75L17.32,0L0,27.75L34.64,27.75Z " /><path id="三角形 1" fill-rule="evenodd" style="fill:#FF5733" transform="translate(20 8)  rotate(0 17.32 13.875)" opacity="1" d="M34.64,27.75L17.32,0L0,27.75L34.64,27.75Z " /></g></g></g></svg>