<svg width="157" height="157" viewBox="0 0 157 157" fill="none" xmlns="http://www.w3.org/2000/svg">
<g filter="url(#filter0_d)">
<rect x="24.2837" y="24" width="108.69" height="108.69" rx="30.4332" fill="white"/>
<path d="M67.6227 106.403L68.666 99.7761L66.342 99.7223H55.2449L62.9568 50.8234C62.9808 50.6758 63.0586 50.5382 63.1723 50.4404C63.286 50.3427 63.4316 50.2888 63.5832 50.2888H82.2945C88.5064 50.2888 92.7932 51.5815 95.0314 54.1328C96.0807 55.3297 96.7489 56.5805 97.0721 57.9569C97.4112 59.4011 97.4172 61.1266 97.0861 63.2312L97.0621 63.3848V64.7333L98.1114 65.3277C98.9951 65.7965 99.6973 66.3331 100.236 66.9475C101.134 67.9708 101.714 69.2714 101.959 70.8134C102.213 72.3993 102.129 74.2864 101.714 76.4229C101.235 78.8805 100.461 81.0209 99.416 82.7723C98.4545 84.3861 97.2297 85.7247 95.7755 86.762C94.3871 87.7474 92.7374 88.4955 90.8722 88.9742C89.0649 89.445 87.0043 89.6824 84.7442 89.6824H83.2879C82.2467 89.6824 81.2353 90.0574 80.4413 90.7296C79.6454 91.4159 79.1188 92.3534 78.9572 93.3788L78.8475 93.9752L77.0043 105.655L76.9205 106.084C76.8986 106.219 76.8607 106.287 76.8048 106.333C76.7549 106.375 76.6831 106.403 76.6133 106.403H67.6227Z" fill="#253B80"/>
<path d="M99.1045 63.5405C99.0487 63.8975 98.9848 64.2626 98.913 64.6376C96.4454 77.3067 88.0034 81.6833 77.2214 81.6833H71.7317C70.4131 81.6833 69.302 82.6408 69.0966 83.9414L66.2859 101.767L65.4899 106.82C65.3563 107.674 66.0146 108.444 66.8763 108.444H76.613C77.766 108.444 78.7455 107.606 78.927 106.469L79.0227 105.974L80.856 94.3404L80.9737 93.702C81.1532 92.561 82.1347 91.7232 83.2877 91.7232H84.7439C94.1773 91.7232 101.562 87.8931 103.721 76.81C104.622 72.18 104.155 68.3141 101.77 65.5951C101.047 64.7753 100.152 64.095 99.1045 63.5405Z" fill="#179BD7"/>
<path d="M96.5236 62.5112C96.1466 62.4015 95.7576 62.3017 95.3586 62.212C94.9577 62.1242 94.5467 62.0464 94.1238 61.9786C92.6437 61.7392 91.0219 61.6255 89.2844 61.6255H74.6186C74.2575 61.6255 73.9144 61.7073 73.6072 61.8549C72.931 62.18 72.4283 62.8204 72.3066 63.6043L69.1867 83.3649L69.0969 83.9414C69.3024 82.6408 70.4135 81.6833 71.7321 81.6833H77.2218C88.0038 81.6833 96.4458 77.3047 98.9134 64.6377C98.9872 64.2626 99.049 63.8976 99.1049 63.5405C98.4805 63.2094 97.8043 62.9261 97.0762 62.6847C96.8966 62.6249 96.7111 62.567 96.5236 62.5112Z" fill="#222D65"/>
<path d="M72.3065 63.6043C72.4282 62.8203 72.9309 62.18 73.6071 61.8568C73.9163 61.7092 74.2574 61.6274 74.6185 61.6274H89.2844C91.0218 61.6274 92.6436 61.7411 94.1238 61.9805C94.5467 62.0483 94.9576 62.1261 95.3586 62.2139C95.7575 62.3037 96.1465 62.4034 96.5235 62.5131C96.711 62.569 96.8966 62.6268 97.0781 62.6847C97.8062 62.926 98.4824 63.2113 99.1068 63.5404C99.8409 58.8586 99.1008 55.6709 96.5694 52.7844C93.7787 49.6067 88.7418 48.2462 82.2965 48.2462H63.5852C62.2686 48.2462 61.1455 49.2037 60.9421 50.5063L53.1483 99.9079C52.9947 100.885 53.7488 101.767 54.7342 101.767H66.2862L69.1866 83.3649L72.3065 63.6043Z" fill="#253B80"/>
</g>
<defs>
<filter id="filter0_d" x="0.283691" y="0" width="156.69" height="156.69" filterUnits="userSpaceOnUse" color-interpolation-filters="sRGB">
<feFlood flood-opacity="0" result="BackgroundImageFix"/>
<feColorMatrix in="SourceAlpha" type="matrix" values="0 0 0 0 0 0 0 0 0 0 0 0 0 0 0 0 0 0 127 0" result="hardAlpha"/>
<feOffset/>
<feGaussianBlur stdDeviation="12"/>
<feComposite in2="hardAlpha" operator="out"/>
<feColorMatrix type="matrix" values="0 0 0 0 0 0 0 0 0 0 0 0 0 0 0 0 0 0 0.2 0"/>
<feBlend mode="normal" in2="BackgroundImageFix" result="effect1_dropShadow"/>
<feBlend mode="normal" in="SourceGraphic" in2="effect1_dropShadow" result="shape"/>
</filter>
</defs>
</svg>
