<svg width="158" height="157" viewBox="0 0 158 157" fill="none" xmlns="http://www.w3.org/2000/svg">
<g filter="url(#filter0_d)">
<rect x="24.4277" y="24" width="108.69" height="108.69" rx="30.4332" fill="white"/>
<g clip-path="url(#clip0)">
<path fill-rule="evenodd" clip-rule="evenodd" d="M71.1652 51C68.1249 51.0022 65.6643 53.4696 65.6666 56.5099C65.6643 59.5502 68.1272 62.0175 71.1675 62.0198H76.6684V56.5121C76.6706 53.4718 74.2078 51.0045 71.1652 51C71.1675 51 71.1675 51 71.1652 51V51ZM71.1652 65.696H56.5007C53.4603 65.6983 50.9975 68.1656 50.9998 71.2059C50.9953 74.2462 53.4581 76.7136 56.4984 76.7181H71.1652C74.2056 76.7158 76.6684 74.2485 76.6661 71.2082C76.6684 68.1656 74.2056 65.6983 71.1652 65.696V65.696Z" fill="#36C5F0"/>
<path fill-rule="evenodd" clip-rule="evenodd" d="M106 71.2059C106.002 68.1656 103.539 65.6983 100.499 65.696C97.4587 65.6983 94.9959 68.1656 94.9981 71.2059V76.7181H100.499C103.539 76.7158 106.002 74.2485 106 71.2059ZM91.3331 71.2059V56.5099C91.3354 53.4718 88.8748 51.0045 85.8345 51C82.7941 51.0022 80.3313 53.4696 80.3336 56.5099V71.2059C80.3291 74.2462 82.7919 76.7136 85.8322 76.7181C88.8725 76.7158 91.3354 74.2485 91.3331 71.2059Z" fill="#2EB67D"/>
<path fill-rule="evenodd" clip-rule="evenodd" d="M85.8323 106.11C88.8726 106.108 91.3355 103.641 91.3332 100.6C91.3355 97.56 88.8726 95.0927 85.8323 95.0904H80.3314V100.6C80.3292 103.638 82.792 106.106 85.8323 106.11ZM85.8323 91.4119H100.499C103.539 91.4097 106.002 88.9424 106 85.902C106.005 82.8617 103.542 80.3944 100.501 80.3899H85.8346C82.7942 80.3921 80.3314 82.8595 80.3337 85.8998C80.3314 88.9424 82.792 91.4097 85.8323 91.4119V91.4119Z" fill="#ECB22E"/>
<path fill-rule="evenodd" clip-rule="evenodd" d="M51 85.902C50.9978 88.9423 53.4606 91.4096 56.5009 91.4119C59.5412 91.4096 62.004 88.9423 62.0018 85.902V80.3921H56.5009C53.4606 80.3943 50.9978 82.8617 51 85.902ZM65.6668 85.902V100.598C65.6623 103.638 68.1251 106.106 71.1655 106.11C74.2058 106.108 76.6686 103.641 76.6664 100.6V85.9065C76.6709 82.8661 74.208 80.3988 71.1677 80.3943C68.1251 80.3943 65.6646 82.8617 65.6668 85.902C65.6668 85.9042 65.6668 85.902 65.6668 85.902Z" fill="#E01E5A"/>
</g>
</g>
<defs>
<filter id="filter0_d" x="0.427734" y="0" width="156.69" height="156.69" filterUnits="userSpaceOnUse" color-interpolation-filters="sRGB">
<feFlood flood-opacity="0" result="BackgroundImageFix"/>
<feColorMatrix in="SourceAlpha" type="matrix" values="0 0 0 0 0 0 0 0 0 0 0 0 0 0 0 0 0 0 127 0" result="hardAlpha"/>
<feOffset/>
<feGaussianBlur stdDeviation="12"/>
<feComposite in2="hardAlpha" operator="out"/>
<feColorMatrix type="matrix" values="0 0 0 0 0 0 0 0 0 0 0 0 0 0 0 0 0 0 0.2 0"/>
<feBlend mode="normal" in2="BackgroundImageFix" result="effect1_dropShadow"/>
<feBlend mode="normal" in="SourceGraphic" in2="effect1_dropShadow" result="shape"/>
</filter>
<clipPath id="clip0">
<rect width="55" height="55.1101" fill="white" transform="translate(51 51)"/>
</clipPath>
</defs>
</svg>
