<svg width="157" height="157" viewBox="0 0 157 157" fill="none" xmlns="http://www.w3.org/2000/svg">
<g filter="url(#filter0_d)">
<rect x="24" y="24" width="108.69" height="108.69" rx="30.4332" fill="white"/>
<g clip-path="url(#clip0)">
<path d="M78.4699 98.7608C67.297 98.7608 58.2394 89.7032 58.2394 78.5305C58.2394 67.3575 67.297 58.3001 78.4699 58.3001C89.6427 58.3001 98.7 67.3575 98.7 78.5305C98.7 89.7032 89.6427 98.7608 78.4699 98.7608V98.7608ZM78.4699 51.0605C63.2987 51.0605 51 63.3595 51 78.5305C51 93.7017 63.2987 106 78.4699 106C93.6409 106 105.94 93.7017 105.94 78.5305C105.94 63.3595 93.6409 51.0605 78.4697 51.0605H78.4699Z" fill="#CF272D"/>
<path d="M79.5992 71.6887C79.5992 68.5343 82.1565 65.9771 85.311 65.9771C88.4656 65.9771 91.0227 68.5343 91.0227 71.6887C91.0227 74.8434 88.4656 77.4005 85.311 77.4005C82.1565 77.4005 79.5992 74.8434 79.5992 71.6887V71.6887ZM79.5992 85.3712C79.5992 82.2169 82.1565 79.6594 85.311 79.6594C88.4656 79.6594 91.0227 82.2169 91.0227 85.3712C91.0227 88.5258 88.4656 91.083 85.311 91.083C82.1565 91.083 79.5992 88.5258 79.5992 85.3712V85.3712ZM65.9169 85.3712C65.9169 82.2169 68.4744 79.6594 71.6287 79.6594C74.7833 79.6594 77.3405 82.2169 77.3405 85.3712C77.3405 88.5258 74.7833 91.083 71.6287 91.083C68.4744 91.083 65.9169 88.5258 65.9169 85.3712ZM65.9169 71.6889C65.9169 68.5343 68.4744 65.9773 71.6287 65.9773C74.7833 65.9773 77.3405 68.5343 77.3405 71.6889C77.3405 74.8437 74.7833 77.4007 71.6287 77.4007C68.4744 77.4007 65.9169 74.8437 65.9169 71.6889Z" fill="#CF272D"/>
</g>
</g>
<defs>
<filter id="filter0_d" x="0" y="0" width="156.69" height="156.69" filterUnits="userSpaceOnUse" color-interpolation-filters="sRGB">
<feFlood flood-opacity="0" result="BackgroundImageFix"/>
<feColorMatrix in="SourceAlpha" type="matrix" values="0 0 0 0 0 0 0 0 0 0 0 0 0 0 0 0 0 0 127 0" result="hardAlpha"/>
<feOffset/>
<feGaussianBlur stdDeviation="12"/>
<feComposite in2="hardAlpha" operator="out"/>
<feColorMatrix type="matrix" values="0 0 0 0 0 0 0 0 0 0 0 0 0 0 0 0 0 0 0.2 0"/>
<feBlend mode="normal" in2="BackgroundImageFix" result="effect1_dropShadow"/>
<feBlend mode="normal" in="SourceGraphic" in2="effect1_dropShadow" result="shape"/>
</filter>
<clipPath id="clip0">
<rect width="55" height="55" fill="white" transform="translate(51 51)"/>
</clipPath>
</defs>
</svg>
